<svg width="715" height="477" fill="none" xmlns="http://www.w3.org/2000/svg"><style>.file:first-child{transform:translate(-124px)}.file:nth-child(2){transform:translate(-62px)}.file:last-child{animation:2s linear infinite fadeout}@keyframes rotate{0%{transform:rotate(0)}to{transform:rotate(360deg)}}@keyframes move{0%{transform:translate(0)}to{transform:translate(62px)}}@keyframes fadeout{0%{opacity:1}66%{opacity:1}to{opacity:0}}</style><g id="strokes"><path d="m426.984 0 .166 19.33-2.496.023-.166-19.328L426.984 0ZM452.963 8.894l-1.283 11.811-1.524-.164 1.283-11.812 1.524.165ZM469.857 11.41l-2.148 11.69-1.51-.277 2.149-11.691 1.509.277ZM486.549 15.182l-3.012 11.5-1.482-.388 3.01-11.502 1.484.39ZM502.892 20.186l-3.862 11.24-1.452-.498 3.862-11.239 1.452.497ZM518.79 26.385l-4.682 10.92-1.409-.605 4.682-10.92 1.409.605ZM534.231 33.756 528.743 44.3l-1.36-.709 5.487-10.544 1.361.708ZM549.076 42.25l-6.247 10.112-1.306-.807 6.248-10.113 1.305.808ZM563.229 51.813l-6.986 9.626-1.239-.9 6.984-9.626 1.241.9ZM576.652 62.398l-7.676 9.08-1.171-.991 7.674-9.08 1.173.991ZM589.242 73.945l-8.308 8.493-1.098-1.072 8.31-8.493 1.096 1.072ZM600.958 86.352l-8.915 7.865-1.016-1.151 8.915-7.865 1.016 1.15ZM611.751 99.644l-9.478 7.179-.925-1.223 9.477-7.18.926 1.224ZM621.496 113.633l-9.971 6.466-.834-1.288 9.969-6.468.836 1.29ZM630.227 128.357l-10.434 5.711-.738-1.348 10.434-5.711.738 1.348ZM637.812 143.682l-10.822 4.915-.635-1.396 10.822-4.915.635 1.396ZM644.251 159.484l-11.157 4.102-.532-1.439 11.16-4.102.529 1.439ZM649.492 175.761l-11.434 3.261-.421-1.474 11.433-3.261.422 1.474ZM653.502 192.361l-11.641 2.394-.31-1.502 11.641-2.396.31 1.504ZM656.282 209.25l-11.789 1.526-.2-1.523 11.792-1.527.197 1.524ZM657.789 226.243l-11.868.661-.085-1.53 11.87-.661.083 1.53ZM658.061 243.398l-11.889-.291.036-1.535 11.891.29-.038 1.536ZM657.089 260.381l-11.843-1.066.141-1.528 11.841 1.068-.139 1.526ZM654.854 277.333l-11.721-1.95.252-1.512 11.721 1.948-.252 1.514ZM651.375 294.046l-11.543-2.814.363-1.49 11.543 2.814-.363 1.49ZM646.662 310.499l-11.31-3.663.474-1.461 11.309 3.663-.473 1.461ZM640.76 326.511l-11.006-4.501.579-1.417 11.007 4.496-.58 1.422ZM633.649 342.091l-10.645-5.306.684-1.374 10.644 5.305-.683 1.375ZM625.415 357.045l-10.212-6.067.782-1.318 10.212 6.066-.782 1.319ZM616.091 371.384l-9.739-6.814.88-1.257 9.74 6.814-.881 1.257ZM605.778 384.948l-9.212-7.505.972-1.186 9.208 7.504-.968 1.187ZM594.45 397.768l-8.638-8.17 1.057-1.115 8.638 8.169-1.057 1.116ZM582.214 409.704l-8.011-8.774 1.134-1.034 8.007 8.773-1.13 1.035ZM569.164 420.705l-7.352-9.348 1.208-.949 7.351 9.35-1.207.947ZM555.304 430.713l-6.64-9.856 1.274-.857 6.639 9.857-1.273.856ZM540.755 439.679l-5.896-10.319 1.333-.763 5.895 10.319-1.332.763ZM525.586 447.54l-5.113-10.724 1.385-.661 5.111 10.723-1.383.662ZM509.879 454.266l-4.301-11.087 1.431-.553 4.299 11.085-1.429.555ZM493.688 459.788l-3.461-11.364 1.465-.445 3.462 11.362-1.466.447ZM477.155 464.102l-2.608-11.6 1.497-.335 2.608 11.598-1.497.337ZM460.368 467.173l-1.743-11.761 1.52-.226 1.742 11.764-1.519.223ZM443.345 468.982l-.861-11.855 1.531-.11.859 11.855-1.529.11ZM425.369 477l-.166-19.33 2.496-.023.166 19.331-2.496.022ZM405.773 468.578l1.041-11.842 1.527.134-1.042 11.843-1.526-.135ZM388.801 466.395l1.92-11.737 1.515.25-1.92 11.735-1.515-.248ZM372.082 462.964l2.784-11.56 1.493.359-2.784 11.56-1.493-.359ZM355.652 458.292l3.635-11.312 1.459.471-3.632 11.311-1.462-.47ZM339.574 452.416l4.469-11.021 1.423.578-4.469 11.019-1.423-.576ZM324.016 445.359l5.273-10.659 1.376.679-5.274 10.662-1.375-.682ZM309.031 437.161l6.052-10.226 1.32.78-6.051 10.229-1.321-.783ZM294.68 427.88l6.785-9.754 1.26.877-6.786 9.751-1.259-.874ZM281.035 417.575l7.492-9.238 1.192.967-7.49 9.236-1.194-.965ZM268.238 406.296l8.14-8.652 1.117 1.051-8.139 8.653-1.118-1.052ZM256.254 394.094l8.76-8.034 1.038 1.128-8.761 8.036-1.037-1.13ZM245.238 381.063l9.323-7.364.95 1.203-9.323 7.364-.95-1.203ZM235.184 367.249l9.843-6.664.861 1.271-9.843 6.664-.861-1.271ZM226.176 352.722l10.305-5.923.765 1.331-10.306 5.924-.764-1.332ZM218.27 337.575l10.725-5.141.662 1.385-10.724 5.141-.663-1.385ZM211.504 321.849l11.073-4.329.558 1.429-11.072 4.328-.559-1.428ZM205.941 305.711l11.366-3.489.449 1.465-11.363 3.488-.452-1.464ZM201.594 289.164l11.584-2.637.341 1.496-11.584 2.637-.341-1.496ZM198.484 272.379l11.749-1.769.229 1.518-11.75 1.768-.228-1.517ZM196.617 255.381l11.857-.89.114 1.529-11.856.891-.115-1.53ZM196 238.379l11.894-.108.013 1.535-11.893.107-.014-1.534ZM196.656 221.233l11.856.841-.107 1.53-11.858-.84.109-1.531ZM198.533 204.28l11.766 1.708-.221 1.521-11.766-1.708.221-1.521ZM201.672 187.456l11.602 2.572-.33 1.498-11.604-2.572.332-1.498ZM206.048 170.941l11.384 3.435-.443 1.468-11.384-3.436.443-1.467ZM211.643 154.786l11.093 4.272-.55 1.432-11.092-4.272.549-1.432ZM218.42 139.127l10.746 5.079-.657 1.387-10.747-5.079.658-1.387ZM226.347 123.969l10.343 5.868-.759 1.336-10.341-5.869.757-1.335ZM235.395 109.442l9.868 6.616-.854 1.274-9.87-6.617.856-1.273ZM245.435 95.662l9.367 7.324-.946 1.209-9.368-7.326.947-1.207ZM256.528 82.612l8.795 8-1.032 1.136-8.795-8 1.032-1.136ZM268.477 70.46l8.193 8.62-1.114 1.059-8.193-8.62 1.114-1.058ZM281.33 59.19l7.535 9.196-1.186.972-7.534-9.196 1.185-.972ZM294.986 48.897l6.837 9.73-1.256.881-6.837-9.73 1.256-.881ZM309.348 39.645l6.094 10.205-1.316.787-6.095-10.206 1.317-.785ZM324.366 31.479l5.325 10.627-1.372.685-5.323-10.625 1.37-.687ZM339.946 24.44l4.527 10.99-1.417.585-4.529-10.99 1.419-.585ZM355.997 18.59l3.689 11.297-1.457.476-3.69-11.295 1.458-.477ZM372.437 13.948l2.834 11.545-1.49.366-2.836-11.545 1.492-.366ZM386.314 11.032l2.125 11.695-1.509.275-2.125-11.697 1.509-.273ZM403.966 8.582l1.216 11.829-1.526.157-1.215-11.83 1.525-.156Z" fill="#C5CCD0"/></g><g style="transform-origin:60%;animation:3s linear infinite rotate;transform:rotate(0)"><path d="M272.874 170.46a169.744 169.744 0 0 1 14.587-26.911l12.251 9.072.398-3.507.772-6.775 2.166-18.909 3.336-29.189-26.947 11.705-26.946 11.706 12.643 9.362a197.862 197.862 0 0 0-18.087 33.258l25.827 10.188ZM259.718 223.247l-27.583-3.15a198.272 198.272 0 0 0 .736 41.495l27.457-4.096a171.05 171.05 0 0 1-.61-34.249ZM261.826 267.542l-27.463 4.088a198.267 198.267 0 0 0 11.4 39.909l25.469-11.063a170.603 170.603 0 0 1-9.406-32.934ZM275.265 309.799l-25.464 11.063a196.491 196.491 0 0 0 21.346 35.599l21.74-17.277a168.71 168.71 0 0 1-17.622-29.385Z" fill="#C5CCD0"/><path d="M312.108 114.204c31.471-29.912 72.519-45.874 114.201-46.568V39.885c-46.217.672-91.791 17.475-127.719 49.085l17.259-7.499-3.741 32.733ZM582.731 165.169l25.472-11.063a196.346 196.346 0 0 0-21.347-35.609l-21.739 17.286a168.489 168.489 0 0 1 17.614 29.386ZM596.18 207.428l27.457-4.098a198.327 198.327 0 0 0-11.391-39.904L586.77 174.49a170.328 170.328 0 0 1 9.41 32.938ZM558.785 127.833l21.744-17.273c-8.761-10.441-14.798-17.209-25.948-25.903l-16.519 22.308c9.166 7.214 13.455 12.285 20.723 20.868ZM269.148 179.906l-25.828-10.188a195.88 195.88 0 0 0-10.035 40.281l27.581 3.156a168.735 168.735 0 0 1 8.282-33.249ZM568.477 334.446l22.316 16.528a197.963 197.963 0 0 0 20.16-36.288l-25.832-10.181a170.667 170.667 0 0 1-16.644 29.941ZM501.316 391.219l11.057 25.461a195.95 195.95 0 0 0 35.606-21.343L530.7 373.593a168.784 168.784 0 0 1-29.384 17.626ZM538.637 367.275l17.281 21.738a198.948 198.948 0 0 0 28.817-29.871l-22.314-16.524a170.275 170.275 0 0 1-23.784 24.657ZM588.84 295.049l25.842 10.201a196.398 196.398 0 0 0 10.032-40.282l-27.582-3.148a168.591 168.591 0 0 1-8.292 33.229ZM625.133 213.379l-27.457 4.094a170.8 170.8 0 0 1 .604 34.246l27.589 3.151a198.37 198.37 0 0 0-.736-41.491ZM414.76 406.765l-3.155 27.587a198.784 198.784 0 0 0 41.493-.735l-4.091-27.458a170.653 170.653 0 0 1-34.247.606ZM332.023 376.955 315.5 399.266a198.416 198.416 0 0 0 36.276 20.164l10.189-25.829a170.25 170.25 0 0 1-29.942-16.646ZM361.234 423.166a196.58 196.58 0 0 0 40.273 10.034l3.153-27.58a168.998 168.998 0 0 1-33.243-8.29l-10.183 25.836ZM299.216 347.13l-21.739 17.276a197.615 197.615 0 0 0 29.872 28.817l16.521-22.311a169.98 169.98 0 0 1-24.654-23.782ZM459.059 404.657l4.092 27.458a198.427 198.427 0 0 0 39.911-11.394l-11.067-25.471a170.382 170.382 0 0 1-32.936 9.407ZM476.234 45.569c-13.129-3.222-26.467-5.094-39.812-5.583V67.76a169.29 169.29 0 0 1 32.874 4.684l6.938-26.874ZM513.023 58.575a196.305 196.305 0 0 0-27.025-10.365l-6.943 26.896c7.446 2.296 14.778 5.153 21.957 8.524l12.011-25.055ZM522.069 63.124l-12.022 25.075a170.774 170.774 0 0 1 20.044 12.763l16.52-22.306a199.053 199.053 0 0 0-24.542-15.532Z" fill="#C5CCD0"/></g><g id="robot"><path d="M478 239h79" stroke="#000" stroke-width="2" stroke-miterlimit="10" stroke-linecap="round" stroke-dasharray="6 8"/><path d="M426.551 201.149v15" stroke="#000" stroke-width="2"/><path d="M426.411 194.899a5.865 5.865 0 0 1 5.415 3.62 5.861 5.861 0 0 1-10.292 5.489 5.858 5.858 0 0 1-.983-3.259 5.845 5.845 0 0 1 3.618-5.407 5.847 5.847 0 0 1 2.242-.443Z" fill="#C5CCD0"/><path d="M425.483 200.75a5.843 5.843 0 0 1 3.4-5.31 5.852 5.852 0 0 0-5.621.375 5.854 5.854 0 0 0-2.707 4.94 5.86 5.86 0 0 0 8.328 5.315 5.851 5.851 0 0 1-3.4-5.32Z" fill="#272727" opacity=".15"/><path d="M392.302 223.249h-3.46a3.452 3.452 0 0 0-3.44 3.44v25a3.451 3.451 0 0 0 3.44 3.44h3.46v-31.88ZM463.761 223.249h-3.21v31.87h3.24a3.452 3.452 0 0 0 3.44-3.44v-25.03a3.448 3.448 0 0 0-3.47-3.4ZM390.141 297.169a7.743 7.743 0 0 1-4.36-1.33v10.86a2.301 2.301 0 0 0 2.29 2.3h6.58v-11.83h-4.51ZM462.68 297.169h-4.5v11.83h6.57a2.31 2.31 0 0 0 2.3-2.3v-10.86a7.805 7.805 0 0 1-4.37 1.33Z" fill="#9EA7AF"/><path opacity=".15" d="M390.601 306.699v-9.53h-.46a7.743 7.743 0 0 1-4.36-1.33v10.86a2.301 2.301 0 0 0 2.29 2.3h4.82a2.304 2.304 0 0 1-2.29-2.3Z" fill="#272727"/><path d="M394.652 279.27h-4.51a7.81 7.81 0 0 0-7.81 7.8v2.3a7.81 7.81 0 0 0 7.81 7.8h4.51v-17.9ZM462.68 279.27h-4.5v17.9h4.5a7.816 7.816 0 0 0 5.522-2.281 7.818 7.818 0 0 0 2.288-5.519v-2.3a7.794 7.794 0 0 0-2.288-5.519 7.796 7.796 0 0 0-5.522-2.281Z" fill="#341C52"/><path d="M434.029 264.26h-15.24v6.832h15.24v-6.832Z" fill="#9EA7AF"/><path opacity=".15" d="M424.339 264.26h-5.55v6.832h5.55v-6.832Z" fill="#272727"/><path d="M444.339 276.402v-3.31a1.999 1.999 0 0 0-2-2h-32.55a2 2 0 0 0-2 2v3.31h36.55Z" fill="#9EA7AF"/><path opacity=".15" d="M414.682 276.402v-3.31a1.999 1.999 0 0 1 2-2h-6.87a2 2 0 0 0-2 2v3.31h6.87Z" fill="#272727"/><path d="M454.732 276.401h-56.64a3.539 3.539 0 0 0-2.429.962 3.201 3.201 0 0 0-1.011 2.311v29.325h63.53v-29.325a3.21 3.21 0 0 0-1.017-2.312 3.552 3.552 0 0 0-2.433-.961ZM460.551 260.81a3.45 3.45 0 0 1-3.44 3.45h-61.37a3.45 3.45 0 0 1-3.44-3.45v-43.49a3.45 3.45 0 0 1 3.44-3.44h61.34a3.444 3.444 0 0 1 3.47 3.44v43.49Z" fill="#C5CCD0"/><path opacity=".15" d="M398.861 260.81v-43.49a3.447 3.447 0 0 1 3.45-3.44h-6.57a3.45 3.45 0 0 0-3.44 3.44v43.49a3.45 3.45 0 0 0 3.44 3.45h6.57a3.462 3.462 0 0 1-3.45-3.45Z" fill="#3C0A71"/><path d="M452.369 239.129a11.891 11.891 0 0 1-11.89 11.9h-28.14a11.891 11.891 0 0 1-11.89-11.9 11.89 11.89 0 0 1 11.89-11.89h28.14a11.89 11.89 0 0 1 11.89 11.89Z" fill="#341C52"/><path opacity=".15" d="M407.13 239.129a11.89 11.89 0 0 1 11.89-11.89h-6.68a11.9 11.9 0 0 0-8.19 20.187 11.894 11.894 0 0 0 8.19 3.603h6.68a11.891 11.891 0 0 1-11.89-11.9Z" fill="#3C0A71"/><path d="M411.161 234.489a4.649 4.649 0 0 1 4.583 5.549 4.657 4.657 0 0 1-3.654 3.662 4.651 4.651 0 0 1-5.559-4.571 4.638 4.638 0 0 1 1.353-3.28 4.627 4.627 0 0 1 3.277-1.36ZM441.759 234.489a4.651 4.651 0 0 1 .928 9.211 4.648 4.648 0 0 1-5.558-4.571 4.637 4.637 0 0 1 1.352-3.28 4.63 4.63 0 0 1 3.278-1.36Z" fill="#68BCD3"/><path opacity=".15" d="M404.672 274.729h-6.58a3.449 3.449 0 0 0-3.44 3.44v30.83h6.57v-30.83a3.455 3.455 0 0 1 1.014-2.433 3.455 3.455 0 0 1 2.436-1.007Z" fill="#3C0A71"/><path d="M446.931 309v-20a2.303 2.303 0 0 0-2.3-2.29h-36.44a2.3 2.3 0 0 0-2.3 2.29v20h41.04Z" fill="#341C52"/><path d="M430.549 309v-6.46a.69.69 0 0 0-.68-.69h-6.89a.689.689 0 0 0-.69.69V309h8.26Z" fill="#B097D0"/><path d="M438.55 292.119a2.57 2.57 0 1 1-2.57 2.57 2.569 2.569 0 0 1 1.585-2.377c.313-.129.648-.194.985-.193Z" fill="#5CB542"/><path d="M430.549 296.559a.69.69 0 0 1-.68.69h-6.89a.693.693 0 0 1-.69-.69v-3.75a.693.693 0 0 1 .69-.69h6.89a.69.69 0 0 1 .68.69v3.75Z" fill="#68BCD3"/><path d="M416.77 290.479h-5.28a1.722 1.722 0 0 0-1.217 2.937c.323.322.76.503 1.217.503h5.28a1.722 1.722 0 0 0 1.72-1.72 1.723 1.723 0 0 0-1.72-1.72ZM411.49 298h3a1.723 1.723 0 0 0 1.72-1.72 1.722 1.722 0 0 0-1.72-1.72h-3c-.457 0-.894.181-1.217.503A1.723 1.723 0 0 0 411.49 298ZM416.77 298.649h-5.28a1.722 1.722 0 0 0-1.217 2.937c.323.322.76.503 1.217.503h5.28a1.722 1.722 0 0 0 1.72-1.72 1.723 1.723 0 0 0-1.72-1.72ZM413.78 302.72h-2.29c-.457 0-.894.181-1.217.503a1.724 1.724 0 0 0 0 2.433c.323.323.76.504 1.217.504h2.29a1.719 1.719 0 1 0 0-3.44ZM440.482 298.649h-3.93a1.721 1.721 0 0 0-1.216 2.937c.322.322.76.503 1.216.503h3.89a1.72 1.72 0 1 0 0-3.44h.04ZM364.241 292.076h13.65v7.48h-13.65v-7.48ZM362.123 277.586c-1.72 6.08-4.48 5.22-4.56 4.91-.08-.31 3.75 8.23 3.75 8.23l18.91.1 12-18.7-15.27-20.63s-2.22-1.21-3.84.3c-1.62 1.51-1 6.58-1 6.58l9.91 14.25-6.78 8.39-5.36 1.22-4.24-.41s-3.29-4.1-3.52-4.24Z" fill="#9EA7AF"/><path d="m362.89 283.71 1.112-2.191-3.434-4.236 1.084-1.727.66-.29 3.81 4.59h.05l.55.73h6.2l6.63-8.29-2.31-3.46-7-10.54a5.8 5.8 0 0 1 1.61-8 6.003 6.003 0 0 1 7.92 1.43l14.19 19.46c.053.09.099.184.14.28.037.061.071.125.1.19.089.227.14.467.15.71v.09c-.01.208-.05.414-.12.61l-.051.108c-.052.111-.104.218-.149.332l-12.27 18.4c-.12.174-.269.326-.44.45a.106.106 0 0 1 0 .05h-.09c-.128.08-.262.15-.4.21l-.16.06a1.78 1.78 0 0 1-.57.09v6.13c0 .544-.216 1.065-.6 1.45-.385.384-.906.6-1.45.6h-14.31a2.053 2.053 0 0 1-1.45-.6 2.053 2.053 0 0 1-.6-1.45v-6.13a2.042 2.042 0 0 1-.48-.06l-.18-.06-.25-.1a1.95 1.95 0 0 1-.55-.43l-.11-.13-.11-.12-4.43-6.65 2.16-3.435.182.249-.022.056 3.48 4.64 1.508-3.016Zm12.466-30.345c.425.081.805.316 1.066.661l11.9 16.31h-5.11l-9.58-14.37a1.72 1.72 0 0 1 .49-2.38c.37-.224.81-.303 1.234-.221Zm13.126 21.071-8.54 12.82-3.45-4.6 6.57-8.22h5.42Zm-12.53 22.49h-10.23v-4.09h10.23v4.09Zm-3.07-12.27 3.07 4.09h-11.01l2.05-4.09h5.89Z" fill="#C5CCD0"/><path d="M382.785 216.333h-26.071l-2.749 2.652v49.585l3.525 3.525h35.192l3.849-1.617v-40.399l-13.746-13.746Z" fill="#fff"/><path d="m397.188 228.677-14.062-14.062a1.757 1.757 0 0 0-1.243-.515h-24.61a5.279 5.279 0 0 0-5.273 5.273v49.453a5.28 5.28 0 0 0 5.273 5.274h35.157a5.28 5.28 0 0 0 5.273-5.274V229.92c0-.479-.201-.929-.515-1.243Zm-13.547-8.576 8.061 8.061h-6.304a1.759 1.759 0 0 1-1.757-1.758v-6.303Zm8.789 50.483h-35.157a1.76 1.76 0 0 1-1.757-1.758v-49.453a1.76 1.76 0 0 1 1.757-1.758h22.852v8.789a5.28 5.28 0 0 0 5.273 5.274h8.79v37.148a1.76 1.76 0 0 1-1.758 1.758Z" fill="#341C52"/><path d="M377.111 292.076h-13.65v7.48h13.65v-7.48ZM379.229 277.586c1.72 6.08 4.48 5.22 4.56 4.91.08-.31-3.75 8.23-3.75 8.23l-18.91.1-12-18.7 15.27-20.63s2.22-1.21 3.84.3c1.62 1.51 1 6.58 1 6.58l-9.91 14.25 6.78 8.39 5.36 1.22 4.24-.41s3.29-4.1 3.52-4.24Z" fill="#9EA7AF"/><path d="m378.461 283.71-1.111-2.191 3.434-4.236-1.084-1.727-.66-.29-3.81 4.59h-.05l-.55.73h-6.2l-6.63-8.29 2.31-3.46 7-10.54c.839-1.277 1.141-2.833.839-4.331a5.796 5.796 0 0 0-2.449-3.669 6 6 0 0 0-7.92 1.43l-14.19 19.46c-.053.09-.1.184-.14.28a1.566 1.566 0 0 0-.1.19c-.089.227-.14.467-.15.71v.09c.009.208.05.414.12.61l.05.108c.053.111.104.218.15.332l12.27 18.4c.12.174.269.326.44.45a.085.085 0 0 0 0 .05h.09c.127.08.261.15.4.21l.16.06c.183.061.376.091.57.09v6.13a2.049 2.049 0 0 0 2.05 2.05h14.31a2.05 2.05 0 0 0 2.05-2.05v-6.13c.161-.001.323-.021.48-.06l.18-.06.25-.1c.207-.109.394-.255.55-.43l.11-.13.11-.12 4.43-6.65-2.16-3.435-.183.249.023.056-3.48 4.64-1.509-3.016Zm-12.466-30.345a1.743 1.743 0 0 0-1.065.661l-11.9 16.31h5.11l9.58-14.37a1.72 1.72 0 0 0-.49-2.38 1.746 1.746 0 0 0-1.235-.221Zm-13.125 21.071 8.54 12.82 3.45-4.6-6.57-8.22h-5.42Zm12.53 22.49h10.23v-4.09H365.4v4.09Zm3.07-12.27-3.07 4.09h11.01l-2.05-4.09h-5.89Z" fill="#C5CCD0"/><path d="M428.752 181.441v-3h-5.76v3a1.15 1.15 0 0 0 1.14 1.15h3.47a1.157 1.157 0 0 0 1.15-1.15Z" fill="#707487"/><path d="M425.872 181.441v-3h-2.88v3a1.15 1.15 0 0 0 1.14 1.15h2.88a1.15 1.15 0 0 1-1.14-1.15Z" fill="#5B5D6E"/><path d="M419.64 166.572v4.71h12.46v-4.63a4.845 4.845 0 0 1 2.27-4.09 16 16 0 1 0-16.92 0 4.653 4.653 0 0 1 2.19 4.01Z" fill="#F8C850"/><path d="M419.858 162.612a15.998 15.998 0 0 1-7.173-17.45 16 16 0 0 1 14.433-12.15h-1.05a15.999 15.999 0 0 0-8.52 29.64 4.655 4.655 0 0 1 2.19 4v4.71h2.3v-4.79a4.687 4.687 0 0 0-2.18-3.96Z" fill="#F5B426"/><path d="M432.221 174.851h-12.67a1.347 1.347 0 0 1-1.34-1.35v-1.21a1.35 1.35 0 0 1 1.34-1.35h12.71a1.36 1.36 0 0 1 1.29 1.35v1.19a1.357 1.357 0 0 1-1.33 1.37ZM432.221 178.712h-12.67a1.351 1.351 0 0 1-1.34-1.35v-1.19a1.35 1.35 0 0 1 1.34-1.32h12.71a1.359 1.359 0 0 1 1.29 1.32v1.19a1.363 1.363 0 0 1-1.33 1.35Z" fill="#E6EAED"/><path d="M432.221 172.852h-12.67a1.355 1.355 0 0 1-1.29-1 1.61 1.61 0 0 0 0 .38v1.19a1.367 1.367 0 0 0 .346.985 1.345 1.345 0 0 0 .944.445h12.71a1.363 1.363 0 0 0 1.29-1.37v-1.19a1.167 1.167 0 0 0-.06-.38 1.336 1.336 0 0 1-1.27.94ZM432.221 176.771h-12.67a1.354 1.354 0 0 1-1.29-1 1.61 1.61 0 0 0 0 .38v1.19a1.347 1.347 0 0 0 1.29 1.37h12.71a1.357 1.357 0 0 0 1.29-1.35v-1.19a1.17 1.17 0 0 0-.06-.38 1.355 1.355 0 0 1-.473.7 1.353 1.353 0 0 1-.797.28Z" fill="#D8DCE0"/><path d="M406.6 148.162h-2.78a.84.84 0 0 0 0 1.68h2.78a.837.837 0 0 0 .84-.84.839.839 0 0 0-.84-.84ZM447.972 148.162h-2.78a.841.841 0 0 0 0 1.68h2.78a.84.84 0 0 0 0-1.68ZM411.661 162.051l-2 2a.848.848 0 0 0-.183.917.856.856 0 0 0 .183.273.857.857 0 0 0 1.19 0l2-2a.842.842 0 1 0-1.19-1.19ZM440.131 135.962l2-2a.838.838 0 0 0-.152-1.059.838.838 0 0 0-1.068-.051l-2 2a.85.85 0 0 0-.183.917.868.868 0 0 0 .183.273.865.865 0 0 0 .627.214.854.854 0 0 0 .593-.294ZM425.9 130.552a.841.841 0 0 0 .83-.84v-2.78a.84.84 0 1 0-1.67 0v2.78a.838.838 0 0 0 .84.84ZM440.132 162.051a.84.84 0 0 0-1.19 1.19l2 2a.857.857 0 0 0 1.19 0 .845.845 0 0 0 0-1.19l-2-2ZM411.661 135.962a.861.861 0 0 0 1.19 0 .837.837 0 0 0 .182-.917.837.837 0 0 0-.182-.273l-2-2a.842.842 0 1 0-1.19 1.19l2 2Z" fill="#707487"/></g><g id="convaier"><rect y="283" width="311" height="26" rx="13" fill="#C5CCD0"/><path d="M13.01 298.95a3.51 3.51 0 1 0 0-7.02 3.51 3.51 0 0 0 0 7.02ZM30.51 298.95a3.51 3.51 0 1 0 0-7.02 3.51 3.51 0 0 0 0 7.02ZM48.51 298.95a3.51 3.51 0 1 0 0-7.02 3.51 3.51 0 0 0 0 7.02ZM66.51 298.95a3.51 3.51 0 1 0 0-7.02 3.51 3.51 0 0 0 0 7.02ZM84.51 298.95a3.51 3.51 0 1 0 0-7.02 3.51 3.51 0 0 0 0 7.02ZM102.51 298.95a3.51 3.51 0 1 0 0-7.02 3.51 3.51 0 0 0 0 7.02ZM120.51 298.95a3.51 3.51 0 1 0 0-7.02 3.51 3.51 0 0 0 0 7.02ZM138.51 298.95a3.51 3.51 0 1 0 0-7.02 3.51 3.51 0 0 0 0 7.02ZM156.51 298.95a3.51 3.51 0 1 0 0-7.02 3.51 3.51 0 0 0 0 7.02ZM174.51 298.95a3.51 3.51 0 1 0 0-7.02 3.51 3.51 0 0 0 0 7.02ZM192.51 298.95a3.51 3.51 0 1 0 0-7.02 3.51 3.51 0 0 0 0 7.02ZM210.51 298.95a3.51 3.51 0 1 0 0-7.02 3.51 3.51 0 0 0 0 7.02ZM228.51 298.95a3.51 3.51 0 1 0-.001-7.021 3.51 3.51 0 0 0 .001 7.021ZM246.51 298.95a3.51 3.51 0 1 0 0-7.02 3.51 3.51 0 0 0 0 7.02ZM268.02 295.44a3.508 3.508 0 0 1-4.195 3.442 3.504 3.504 0 0 1-2.758-2.758 3.517 3.517 0 0 1 1.493-3.603 3.515 3.515 0 0 1 4.432.437 3.51 3.51 0 0 1 1.028 2.482ZM282.51 298.95a3.51 3.51 0 1 0-.001-7.021 3.51 3.51 0 0 0 .001 7.021ZM299.01 298.95a3.51 3.51 0 1 0 0-7.02 3.51 3.51 0 0 0 0 7.02Z" fill="#fff"/></g><g style="animation:2s linear infinite move"><g class="file"><path d="M39.82 216H13.75L11 218.652v49.585l3.526 3.525h35.19l3.85-1.617v-40.399L39.82 216Z" fill="#fff"/><path d="m54.188 228.577-14.062-14.062a1.761 1.761 0 0 0-1.243-.515h-24.61A5.28 5.28 0 0 0 9 219.273v49.454A5.28 5.28 0 0 0 14.273 274H49.43a5.28 5.28 0 0 0 5.273-5.273V229.82c0-.479-.201-.929-.515-1.243Zm-13.547-8.575 8.06 8.06h-6.303a1.76 1.76 0 0 1-1.757-1.757v-6.303Zm8.789 50.482H14.273a1.76 1.76 0 0 1-1.757-1.757v-49.454a1.76 1.76 0 0 1 1.757-1.757h22.852v8.789a5.28 5.28 0 0 0 5.273 5.273h8.79v37.149a1.76 1.76 0 0 1-1.758 1.757Z" fill="#B097D0"/><path d="M42.398 238.844H21.305a1.758 1.758 0 0 0 0 3.515h21.093a1.758 1.758 0 1 0 0-3.515ZM42.398 245.875H21.305a1.758 1.758 0 0 0 0 3.516h21.093a1.758 1.758 0 0 0 0-3.516ZM42.398 252.906H21.305a1.758 1.758 0 0 0 0 3.516h21.093a1.758 1.758 0 0 0 0-3.516ZM35.367 259.938H21.305a1.758 1.758 0 1 0 0 3.515h14.062a1.758 1.758 0 0 0 0-3.515Z" fill="#B097D0"/></g><g class="file"><path d="M39.82 216H13.75L11 218.652v49.585l3.526 3.525h35.19l3.85-1.617v-40.399L39.82 216Z" fill="#fff"/><path d="m54.188 228.577-14.062-14.062a1.761 1.761 0 0 0-1.243-.515h-24.61A5.28 5.28 0 0 0 9 219.273v49.454A5.28 5.28 0 0 0 14.273 274H49.43a5.28 5.28 0 0 0 5.273-5.273V229.82c0-.479-.201-.929-.515-1.243Zm-13.547-8.575 8.06 8.06h-6.303a1.76 1.76 0 0 1-1.757-1.757v-6.303Zm8.789 50.482H14.273a1.76 1.76 0 0 1-1.757-1.757v-49.454a1.76 1.76 0 0 1 1.757-1.757h22.852v8.789a5.28 5.28 0 0 0 5.273 5.273h8.79v37.149a1.76 1.76 0 0 1-1.758 1.757Z" fill="#B097D0"/><path d="M42.398 238.844H21.305a1.758 1.758 0 0 0 0 3.515h21.093a1.758 1.758 0 1 0 0-3.515ZM42.398 245.875H21.305a1.758 1.758 0 0 0 0 3.516h21.093a1.758 1.758 0 0 0 0-3.516ZM42.398 252.906H21.305a1.758 1.758 0 0 0 0 3.516h21.093a1.758 1.758 0 0 0 0-3.516ZM35.367 259.938H21.305a1.758 1.758 0 1 0 0 3.515h14.062a1.758 1.758 0 0 0 0-3.515Z" fill="#B097D0"/></g><g class="file"><path d="M39.82 216H13.75L11 218.652v49.585l3.526 3.525h35.19l3.85-1.617v-40.399L39.82 216Z" fill="#fff"/><path d="m54.188 228.577-14.062-14.062a1.761 1.761 0 0 0-1.243-.515h-24.61A5.28 5.28 0 0 0 9 219.273v49.454A5.28 5.28 0 0 0 14.273 274H49.43a5.28 5.28 0 0 0 5.273-5.273V229.82c0-.479-.201-.929-.515-1.243Zm-13.547-8.575 8.06 8.06h-6.303a1.76 1.76 0 0 1-1.757-1.757v-6.303Zm8.789 50.482H14.273a1.76 1.76 0 0 1-1.757-1.757v-49.454a1.76 1.76 0 0 1 1.757-1.757h22.852v8.789a5.28 5.28 0 0 0 5.273 5.273h8.79v37.149a1.76 1.76 0 0 1-1.758 1.757Z" fill="#B097D0"/><path d="M42.398 238.844H21.305a1.758 1.758 0 0 0 0 3.515h21.093a1.758 1.758 0 1 0 0-3.515ZM42.398 245.875H21.305a1.758 1.758 0 0 0 0 3.516h21.093a1.758 1.758 0 0 0 0-3.516ZM42.398 252.906H21.305a1.758 1.758 0 0 0 0 3.516h21.093a1.758 1.758 0 0 0 0-3.516ZM35.367 259.938H21.305a1.758 1.758 0 1 0 0 3.515h14.062a1.758 1.758 0 0 0 0-3.515Z" fill="#B097D0"/></g><g class="file"><path d="M101.82 216H75.75L73 218.652v49.585l3.526 3.525h35.191l3.849-1.617v-40.399L101.82 216Z" fill="#fff"/><path d="m116.188 228.577-14.062-14.062a1.76 1.76 0 0 0-1.243-.515h-24.61A5.28 5.28 0 0 0 71 219.273v49.454A5.28 5.28 0 0 0 76.273 274h35.157a5.28 5.28 0 0 0 5.273-5.273V229.82c0-.479-.201-.929-.515-1.243Zm-13.547-8.575 8.061 8.06h-6.304a1.759 1.759 0 0 1-1.757-1.757v-6.303Zm8.789 50.482H76.273a1.76 1.76 0 0 1-1.757-1.757v-49.454a1.76 1.76 0 0 1 1.757-1.757h22.852v8.789a5.28 5.28 0 0 0 5.273 5.273h8.79v37.149a1.76 1.76 0 0 1-1.758 1.757Z" fill="#B097D0"/><path d="M104.398 238.844H83.305a1.758 1.758 0 0 0 0 3.515h21.093a1.758 1.758 0 1 0 0-3.515ZM104.398 245.875H83.305a1.758 1.758 0 0 0 0 3.516h21.093a1.758 1.758 0 1 0 0-3.516ZM104.398 252.906H83.305a1.758 1.758 0 0 0 0 3.516h21.093a1.758 1.758 0 1 0 0-3.516ZM97.367 259.938H83.305a1.758 1.758 0 1 0 0 3.515h14.062a1.758 1.758 0 0 0 0-3.515Z" fill="#B097D0"/></g><g class="file"><path d="M163.82 216h-26.07l-2.75 2.652v49.585l3.526 3.525h35.191l3.849-1.617v-40.399L163.82 216Z" fill="#fff"/><path d="m178.188 228.577-14.062-14.062a1.76 1.76 0 0 0-1.243-.515h-24.61a5.28 5.28 0 0 0-5.273 5.273v49.454a5.28 5.28 0 0 0 5.273 5.273h35.157a5.28 5.28 0 0 0 5.273-5.273V229.82c0-.479-.201-.929-.515-1.243Zm-13.547-8.575 8.061 8.06h-6.304a1.759 1.759 0 0 1-1.757-1.757v-6.303Zm8.789 50.482h-35.157a1.759 1.759 0 0 1-1.757-1.757v-49.454c0-.969.788-1.757 1.757-1.757h22.852v8.789a5.28 5.28 0 0 0 5.273 5.273h8.79v37.149a1.76 1.76 0 0 1-1.758 1.757Z" fill="#B097D0"/><path d="M166.398 238.844h-21.093a1.758 1.758 0 1 0 0 3.515h21.093a1.758 1.758 0 1 0 0-3.515ZM166.398 245.875h-21.093a1.758 1.758 0 1 0 0 3.516h21.093a1.758 1.758 0 1 0 0-3.516ZM166.398 252.906h-21.093a1.758 1.758 0 1 0 0 3.516h21.093a1.758 1.758 0 1 0 0-3.516ZM159.367 259.938h-14.062a1.758 1.758 0 1 0 0 3.515h14.062a1.758 1.758 0 1 0 0-3.515Z" fill="#B097D0"/></g><g class="file"><path d="M225.82 216h-26.07l-2.75 2.652v49.585l3.526 3.525h35.191l3.849-1.617v-40.399L225.82 216Z" fill="#fff"/><path d="m240.188 228.577-14.062-14.062a1.76 1.76 0 0 0-1.243-.515h-24.61a5.28 5.28 0 0 0-5.273 5.273v49.454a5.28 5.28 0 0 0 5.273 5.273h35.157a5.28 5.28 0 0 0 5.273-5.273V229.82c0-.479-.201-.929-.515-1.243Zm-13.547-8.575 8.061 8.06h-6.304a1.759 1.759 0 0 1-1.757-1.757v-6.303Zm8.789 50.482h-35.157a1.759 1.759 0 0 1-1.757-1.757v-49.454c0-.969.788-1.757 1.757-1.757h22.852v8.789a5.28 5.28 0 0 0 5.273 5.273h8.79v37.149a1.76 1.76 0 0 1-1.758 1.757Z" fill="#B097D0"/><path d="M228.398 238.844h-21.093a1.758 1.758 0 1 0 0 3.515h21.093a1.758 1.758 0 1 0 0-3.515ZM228.398 245.875h-21.093a1.758 1.758 0 1 0 0 3.516h21.093a1.758 1.758 0 1 0 0-3.516ZM228.398 252.906h-21.093a1.758 1.758 0 1 0 0 3.516h21.093a1.758 1.758 0 1 0 0-3.516ZM221.367 259.938h-14.062a1.758 1.758 0 1 0 0 3.515h14.062a1.758 1.758 0 1 0 0-3.515Z" fill="#B097D0"/></g><g class="file"><path d="M287.82 216h-26.07l-2.75 2.652v49.585l3.526 3.525h35.191l3.849-1.617v-40.399L287.82 216Z" fill="#fff"/><path d="m302.188 228.577-14.062-14.062a1.76 1.76 0 0 0-1.243-.515h-24.61a5.28 5.28 0 0 0-5.273 5.273v49.454a5.28 5.28 0 0 0 5.273 5.273h35.157a5.28 5.28 0 0 0 5.273-5.273V229.82c0-.479-.201-.929-.515-1.243Zm-13.547-8.575 8.061 8.06h-6.304a1.759 1.759 0 0 1-1.757-1.757v-6.303Zm8.789 50.482h-35.157a1.759 1.759 0 0 1-1.757-1.757v-49.454c0-.969.788-1.757 1.757-1.757h22.852v8.789a5.28 5.28 0 0 0 5.273 5.273h8.79v37.149a1.76 1.76 0 0 1-1.758 1.757Z" fill="#B097D0"/><path d="M290.398 238.844h-21.093a1.758 1.758 0 1 0 0 3.515h21.093a1.758 1.758 0 1 0 0-3.515ZM290.398 245.875h-21.093a1.758 1.758 0 1 0 0 3.516h21.093a1.758 1.758 0 1 0 0-3.516ZM290.398 252.906h-21.093a1.758 1.758 0 1 0 0 3.516h21.093a1.758 1.758 0 1 0 0-3.516ZM283.367 259.938h-14.062a1.758 1.758 0 1 0 0 3.515h14.062a1.758 1.758 0 1 0 0-3.515Z" fill="#B097D0"/></g></g><path d="M706.05 127.8h-130.6a6.45 6.45 0 0 0-6.45 6.45v164.51a6.45 6.45 0 0 0 6.45 6.45h130.6a6.45 6.45 0 0 0 6.45-6.45V134.25a6.45 6.45 0 0 0-6.45-6.45Z" fill="#fff"/><g id="document"><path d="M706.523 130.034a4.45 4.45 0 0 1 3.156 1.315 4.498 4.498 0 0 1 1.308 3.174v165.964a4.504 4.504 0 0 1-1.308 3.171 4.446 4.446 0 0 1-3.156 1.308H575.478a4.447 4.447 0 0 1-4.125-2.763 4.504 4.504 0 0 1-.34-1.716V134.523c0-1.191.47-2.332 1.308-3.174a4.45 4.45 0 0 1 3.157-1.315h131.045Zm0-4.034H575.478a8.465 8.465 0 0 0-5.992 2.499 8.56 8.56 0 0 0-2.486 6.024v165.964a8.553 8.553 0 0 0 2.489 6.017 8.467 8.467 0 0 0 5.989 2.496h131.045a8.466 8.466 0 0 0 5.988-2.496 8.553 8.553 0 0 0 2.489-6.017V134.523a8.56 8.56 0 0 0-2.486-6.024 8.464 8.464 0 0 0-5.991-2.499Z" fill="#C5CCD0"/><path d="M701.102 137.14h-121.03a2.22 2.22 0 0 0-2.22 2.22v19.93a2.22 2.22 0 0 0 2.22 2.22h121.03a2.22 2.22 0 0 0 2.22-2.22v-19.93a2.22 2.22 0 0 0-2.22-2.22Z" fill="#341C52"/><path d="M700.847 172.239h-120.52a2.475 2.475 0 1 0 0 4.95h120.52a2.476 2.476 0 0 0 0-4.95ZM700.847 183.189h-120.52a2.476 2.476 0 0 0 0 4.95h120.52a2.476 2.476 0 0 0 0-4.95ZM700.847 194.14h-120.52a2.475 2.475 0 1 0 0 4.95h120.52a2.476 2.476 0 0 0 0-4.95ZM700.842 205.09h-120.51a2.48 2.48 0 1 0 0 4.96h120.51a2.48 2.48 0 0 0 0-4.96ZM700.842 216.05h-120.51a2.48 2.48 0 1 0 0 4.96h120.51a2.48 2.48 0 0 0 0-4.96ZM700.847 227.01h-120.52a2.475 2.475 0 1 0 0 4.95h120.52a2.476 2.476 0 0 0 0-4.95Z" fill="#B097D0"/><path d="M701.102 242h-121.03a2.22 2.22 0 0 0-2.22 2.22v19.93a2.22 2.22 0 0 0 2.22 2.22h121.03a2.22 2.22 0 0 0 2.22-2.22v-19.93a2.22 2.22 0 0 0-2.22-2.22ZM701.102 270.92h-121.03a2.22 2.22 0 0 0-2.22 2.22v19.93a2.22 2.22 0 0 0 2.22 2.22h121.03a2.22 2.22 0 0 0 2.22-2.22v-19.93a2.22 2.22 0 0 0-2.22-2.22Z" fill="#341C52"/><path d="M591.084 151.341c0 .879-.319 1.565-.957 2.057-.638.493-1.504.739-2.598.739-1.185 0-2.096-.153-2.734-.458v-1.121c.41.173.857.31 1.34.41.483.1.961.15 1.435.15.775 0 1.358-.146 1.75-.437.392-.297.588-.707.588-1.231 0-.346-.07-.629-.212-.847-.136-.224-.369-.429-.697-.616-.324-.187-.818-.398-1.483-.635-.93-.333-1.595-.727-1.996-1.183-.397-.456-.595-1.051-.595-1.784 0-.77.289-1.383.868-1.839.579-.456 1.344-.684 2.297-.684.993 0 1.907.183 2.741.547l-.362 1.012c-.825-.346-1.627-.52-2.407-.52-.615 0-1.096.133-1.442.397-.346.264-.519.631-.519 1.1 0 .347.063.632.191.855.128.219.342.421.643.608.305.183.77.385 1.394.609 1.048.373 1.768.774 2.16 1.203.397.428.595.984.595 1.668Zm2.939-4.833v4.86c0 .611.139 1.067.417 1.367.278.301.714.452 1.306.452.784 0 1.356-.215 1.716-.643.364-.428.547-1.128.547-2.099v-3.937h1.135V154h-.937l-.164-1.005h-.062a2.26 2.26 0 0 1-.97.848c-.41.196-.88.294-1.408.294-.912 0-1.596-.217-2.051-.65-.451-.433-.677-1.125-.677-2.078v-4.901h1.148ZM611.106 154v-4.874c0-.597-.127-1.044-.382-1.34-.256-.301-.652-.451-1.19-.451-.706 0-1.228.203-1.565.608-.337.406-.506 1.03-.506 1.873V154h-1.135v-4.874c0-.597-.127-1.044-.383-1.34-.255-.301-.654-.451-1.196-.451-.711 0-1.233.214-1.565.643-.329.423-.493 1.121-.493 2.091V154h-1.134v-7.492h.922l.185 1.025h.055c.214-.364.515-.649.902-.854.392-.205.83-.308 1.313-.308 1.171 0 1.936.424 2.296 1.272h.055c.223-.392.547-.702.971-.93a3.011 3.011 0 0 1 1.449-.342c.848 0 1.481.219 1.9.656.424.433.636 1.128.636 2.085V154h-1.135Zm13.03 0v-4.874c0-.597-.128-1.044-.383-1.34-.255-.301-.652-.451-1.19-.451-.706 0-1.228.203-1.565.608-.337.406-.506 1.03-.506 1.873V154h-1.135v-4.874c0-.597-.127-1.044-.382-1.34-.256-.301-.654-.451-1.197-.451-.711 0-1.232.214-1.565.643-.328.423-.492 1.121-.492 2.091V154h-1.135v-7.492h.923l.184 1.025h.055c.214-.364.515-.649.902-.854.392-.205.83-.308 1.313-.308 1.171 0 1.937.424 2.297 1.272h.054c.224-.392.547-.702.971-.93a3.011 3.011 0 0 1 1.449-.342c.848 0 1.481.219 1.901.656.424.433.636 1.128.636 2.085V154h-1.135Zm8.087 0-.226-1.066h-.055c-.373.469-.747.788-1.121.957-.369.164-.831.246-1.387.246-.743 0-1.327-.192-1.75-.575-.42-.382-.629-.927-.629-1.633 0-1.513 1.21-2.306 3.63-2.379l1.271-.041v-.465c0-.588-.128-1.021-.383-1.299-.25-.282-.654-.424-1.21-.424-.624 0-1.33.192-2.119.575l-.348-.869c.369-.2.772-.357 1.209-.471a5.304 5.304 0 0 1 1.327-.171c.893 0 1.554.198 1.982.594.433.397.649 1.033.649 1.908V154h-.84Zm-2.564-.8c.707 0 1.26-.193 1.661-.581.406-.387.609-.93.609-1.627v-.677l-1.135.048c-.902.032-1.554.173-1.955.424-.397.246-.595.631-.595 1.155 0 .411.123.723.369.937.251.214.6.321 1.046.321Zm9.167-6.829c.333 0 .631.027.896.082l-.158 1.053a3.883 3.883 0 0 0-.82-.103c-.606 0-1.126.246-1.558.739-.429.492-.643 1.105-.643 1.838V154h-1.135v-7.492h.937l.13 1.388h.054c.278-.488.613-.864 1.005-1.128a2.259 2.259 0 0 1 1.292-.397Zm1.108.137h1.216l1.641 4.272c.36.976.583 1.68.67 2.113h.055c.059-.233.182-.629.369-1.19.191-.565.811-2.297 1.859-5.195h1.217l-3.22 8.531c-.319.843-.692 1.44-1.121 1.791-.424.356-.946.533-1.565.533a4.54 4.54 0 0 1-1.026-.116v-.909c.251.055.531.082.841.082.779 0 1.335-.438 1.668-1.313l.417-1.066-3.021-7.533ZM585.444 259v-9.994h1.162V259h-1.162Zm8.867 0v-4.847c0-.61-.139-1.066-.417-1.367-.278-.301-.714-.451-1.306-.451-.784 0-1.358.212-1.723.636-.364.424-.547 1.123-.547 2.098V259h-1.134v-7.492h.922l.185 1.025h.055c.232-.369.558-.654.977-.854.42-.205.887-.308 1.402-.308.902 0 1.581.219 2.037.656.455.433.683 1.128.683 2.085V259h-1.134Zm5.892-.8c.201 0 .394-.013.581-.041.187-.032.335-.064.445-.096v.869a2.024 2.024 0 0 1-.547.143 3.816 3.816 0 0 1-.643.062c-1.449 0-2.174-.764-2.174-2.29v-4.457h-1.073v-.547l1.073-.472.479-1.6H599v1.737h2.174v.882H599v4.409c0 .451.107.797.321 1.039.214.241.508.362.882.362Zm5.947-6.829c.333 0 .632.027.896.082l-.157 1.053a3.899 3.899 0 0 0-.821-.103c-.606 0-1.125.246-1.558.739-.429.492-.643 1.105-.643 1.838V259h-1.135v-7.492h.937l.13 1.388h.055c.278-.488.612-.864 1.004-1.128a2.259 2.259 0 0 1 1.292-.397Zm8.764 3.876c0 1.221-.308 2.176-.923 2.864-.615.684-1.465 1.026-2.55 1.026-.67 0-1.264-.158-1.784-.472-.519-.314-.92-.766-1.203-1.353-.282-.588-.424-1.277-.424-2.065 0-1.221.306-2.171.916-2.851.611-.683 1.459-1.025 2.543-1.025 1.048 0 1.88.349 2.495 1.046.62.697.93 1.641.93 2.83Zm-5.708 0c0 .957.191 1.686.574 2.188.383.501.946.752 1.689.752.743 0 1.305-.249 1.688-.746.388-.501.581-1.232.581-2.194 0-.952-.193-1.675-.581-2.167-.383-.497-.95-.745-1.702-.745-.743 0-1.303.244-1.682.731-.378.488-.567 1.215-.567 2.181Zm12.804 2.748h-.062c-.524.761-1.308 1.142-2.351 1.142-.98 0-1.743-.335-2.29-1.005-.543-.67-.814-1.623-.814-2.858s.274-2.194.82-2.878c.547-.683 1.308-1.025 2.284-1.025 1.016 0 1.795.369 2.338 1.108h.088l-.047-.541-.028-.526v-3.049h1.135V259h-.923l-.15-1.005Zm-2.27.192c.775 0 1.336-.21 1.682-.629.351-.424.526-1.106.526-2.044v-.24c0-1.061-.177-1.818-.533-2.269-.351-.456-.914-.684-1.688-.684-.666 0-1.176.26-1.532.78-.351.515-.526 1.244-.526 2.187 0 .957.175 1.679.526 2.167.351.488.866.732 1.545.732Zm6.822-6.679v4.86c0 .611.139 1.067.417 1.367.278.301.714.452 1.306.452.784 0 1.356-.215 1.716-.643.365-.428.547-1.128.547-2.099v-3.937h1.135V259h-.937l-.164-1.005h-.061a2.262 2.262 0 0 1-.971.848c-.41.196-.88.294-1.408.294-.912 0-1.595-.217-2.051-.65-.451-.433-.677-1.125-.677-2.078v-4.901h1.148Zm10.528 7.629c-1.085 0-1.926-.333-2.523-.998-.592-.67-.888-1.616-.888-2.837 0-1.253.3-2.222.902-2.906.606-.683 1.468-1.025 2.584-1.025.36 0 .72.039 1.08.116.36.078.643.169.848.274l-.349.964a4.958 4.958 0 0 0-.82-.246 3.509 3.509 0 0 0-.786-.103c-1.522 0-2.284.971-2.284 2.912 0 .921.185 1.627.554 2.119.374.492.925.739 1.654.739.625 0 1.265-.135 1.921-.404v1.005c-.501.26-1.132.39-1.893.39Zm6.098-.937c.2 0 .394-.013.581-.041.186-.032.335-.064.444-.096v.869a2.003 2.003 0 0 1-.547.143 3.806 3.806 0 0 1-.643.062c-1.449 0-2.173-.764-2.173-2.29v-4.457h-1.074v-.547l1.074-.472.478-1.6h.656v1.737h2.174v.882h-2.174v4.409c0 .451.107.797.322 1.039.214.241.508.362.882.362Zm3.664.8h-1.135v-7.492h1.135V259Zm-1.231-9.522c0-.26.064-.449.191-.568a.664.664 0 0 1 .479-.184.67.67 0 0 1 .472.184c.132.123.198.312.198.568 0 .255-.066.446-.198.574a.67.67 0 0 1-.472.184.664.664 0 0 1-.479-.184c-.127-.128-.191-.319-.191-.574Zm10.104 5.769c0 1.221-.308 2.176-.923 2.864-.615.684-1.465 1.026-2.55 1.026-.67 0-1.265-.158-1.784-.472-.52-.314-.921-.766-1.203-1.353-.283-.588-.424-1.277-.424-2.065 0-1.221.305-2.171.916-2.851.611-.683 1.458-1.025 2.543-1.025 1.048 0 1.88.349 2.495 1.046.62.697.93 1.641.93 2.83Zm-5.708 0c0 .957.191 1.686.574 2.188.383.501.945.752 1.688.752s1.306-.249 1.689-.746c.387-.501.581-1.232.581-2.194 0-.952-.194-1.675-.581-2.167-.383-.497-.95-.745-1.702-.745-.743 0-1.304.244-1.682.731-.378.488-.567 1.215-.567 2.181ZM662.848 259v-4.847c0-.61-.139-1.066-.417-1.367-.278-.301-.714-.451-1.306-.451-.784 0-1.358.212-1.723.636-.364.424-.547 1.123-.547 2.098V259h-1.134v-7.492h.923l.184 1.025h.055c.232-.369.558-.654.977-.854.42-.205.887-.308 1.402-.308.902 0 1.581.219 2.037.656.456.433.683 1.128.683 2.085V259h-1.134ZM593.422 282.907c0 1.65-.449 2.912-1.347 3.787-.893.871-2.18 1.306-3.862 1.306h-2.769v-9.994h3.063c1.554 0 2.762.431 3.623 1.292.861.861 1.292 2.064 1.292 3.609Zm-1.231.041c0-1.303-.328-2.285-.984-2.946-.652-.661-1.622-.991-2.912-.991h-1.689v7.984h1.415c1.386 0 2.427-.339 3.125-1.018.697-.684 1.045-1.693 1.045-3.029Zm4.43 5.052h-1.135v-7.492h1.135V288Zm-1.23-9.522c0-.26.063-.449.191-.568a.663.663 0 0 1 .479-.184c.182 0 .339.061.471.184.132.123.198.312.198.568 0 .255-.066.446-.198.574a.667.667 0 0 1-.471.184.663.663 0 0 1-.479-.184c-.128-.128-.191-.319-.191-.574Zm8.469 7.478c0 .697-.259 1.235-.779 1.613-.519.379-1.249.568-2.187.568-.994 0-1.769-.158-2.325-.472v-1.053c.36.183.745.326 1.156.431.414.105.813.157 1.196.157.592 0 1.048-.093 1.367-.28.319-.191.479-.481.479-.868 0-.292-.128-.54-.383-.745-.251-.21-.743-.456-1.477-.739-.697-.259-1.194-.485-1.49-.676a2.107 2.107 0 0 1-.656-.663 1.74 1.74 0 0 1-.212-.882c0-.611.248-1.092.745-1.443.497-.355 1.178-.533 2.044-.533a5.98 5.98 0 0 1 2.365.492l-.403.923c-.752-.31-1.433-.465-2.044-.465-.538 0-.944.085-1.217.253-.273.169-.41.401-.41.697 0 .201.05.372.15.513.105.141.271.276.499.404.228.127.666.312 1.313.553.888.324 1.488.65 1.798.978.314.328.471.74.471 1.237Zm4.847 2.181c-1.085 0-1.925-.333-2.522-.998-.593-.67-.889-1.616-.889-2.837 0-1.253.301-2.222.902-2.906.606-.683 1.468-1.025 2.584-1.025.36 0 .72.039 1.08.116.36.078.643.169.848.274l-.349.964a4.93 4.93 0 0 0-.82-.246 3.509 3.509 0 0 0-.786-.103c-1.522 0-2.283.971-2.283 2.912 0 .921.184 1.627.553 2.119.374.492.926.739 1.655.739.624 0 1.264-.135 1.921-.404v1.005c-.502.26-1.133.39-1.894.39Zm4.744-7.629v4.86c0 .611.139 1.067.417 1.367.278.301.713.452 1.306.452.784 0 1.356-.215 1.716-.643.364-.428.547-1.128.547-2.099v-3.937h1.134V288h-.936l-.164-1.005h-.062a2.257 2.257 0 0 1-.971.848c-.41.196-.879.294-1.408.294-.911 0-1.595-.217-2.051-.65-.451-.433-.676-1.125-.676-2.078v-4.901h1.148Zm12.366 5.448c0 .697-.259 1.235-.779 1.613-.519.379-1.249.568-2.187.568-.994 0-1.769-.158-2.325-.472v-1.053c.36.183.745.326 1.156.431.414.105.813.157 1.196.157.592 0 1.048-.093 1.367-.28.319-.191.479-.481.479-.868 0-.292-.128-.54-.383-.745-.251-.21-.743-.456-1.477-.739-.697-.259-1.194-.485-1.49-.676a2.107 2.107 0 0 1-.656-.663 1.74 1.74 0 0 1-.212-.882c0-.611.248-1.092.745-1.443.497-.355 1.178-.533 2.044-.533a5.98 5.98 0 0 1 2.365.492l-.403.923c-.752-.31-1.433-.465-2.044-.465-.538 0-.943.085-1.217.253-.273.169-.41.401-.41.697 0 .201.05.372.15.513.105.141.271.276.499.404.228.127.666.312 1.313.553.889.324 1.488.65 1.798.978.314.328.471.74.471 1.237Zm6.686 0c0 .697-.26 1.235-.779 1.613-.52.379-1.249.568-2.188.568-.993 0-1.768-.158-2.324-.472v-1.053c.36.183.745.326 1.155.431.415.105.814.157 1.196.157.593 0 1.049-.093 1.368-.28.319-.191.478-.481.478-.868 0-.292-.127-.54-.383-.745-.25-.21-.742-.456-1.476-.739-.697-.259-1.194-.485-1.49-.676a2.11 2.11 0 0 1-.657-.663 1.75 1.75 0 0 1-.212-.882c0-.611.249-1.092.746-1.443.496-.355 1.178-.533 2.043-.533.807 0 1.596.164 2.366.492l-.404.923c-.752-.31-1.433-.465-2.044-.465-.537 0-.943.085-1.216.253-.274.169-.411.401-.411.697 0 .201.051.372.151.513.105.141.271.276.499.404.228.127.665.312 1.312.553.889.324 1.488.65 1.798.978.315.328.472.74.472 1.237ZM635.49 288h-1.135v-7.492h1.135V288Zm-1.23-9.522c0-.26.064-.449.191-.568a.663.663 0 0 1 .479-.184c.182 0 .339.061.471.184.133.123.199.312.199.568 0 .255-.066.446-.199.574a.667.667 0 0 1-.471.184.663.663 0 0 1-.479-.184c-.127-.128-.191-.319-.191-.574Zm10.103 5.769c0 1.221-.307 2.176-.923 2.864-.615.684-1.465 1.026-2.549 1.026-.67 0-1.265-.158-1.785-.472-.519-.314-.92-.766-1.203-1.353-.282-.588-.424-1.277-.424-2.065 0-1.221.306-2.171.917-2.851.61-.683 1.458-1.025 2.542-1.025 1.049 0 1.88.349 2.496 1.046.619.697.929 1.641.929 2.83Zm-5.708 0c0 .957.192 1.686.574 2.188.383.501.946.752 1.689.752.743 0 1.306-.249 1.688-.746.388-.501.582-1.232.582-2.194 0-.952-.194-1.675-.582-2.167-.382-.497-.95-.745-1.702-.745-.743 0-1.303.244-1.681.731-.379.488-.568 1.215-.568 2.181ZM651.486 288v-4.847c0-.61-.139-1.066-.417-1.367-.278-.301-.713-.451-1.305-.451-.784 0-1.358.212-1.723.636-.365.424-.547 1.123-.547 2.098V288h-1.135v-7.492h.923l.185 1.025h.054c.233-.369.559-.654.978-.854a3.145 3.145 0 0 1 1.401-.308c.903 0 1.582.219 2.038.656.455.433.683 1.128.683 2.085V288h-1.135Z" fill="#fff"/></g></svg>